HIERARCHY
ROOT Hips
{
	OFFSET 0.000000 0.000000 0.000000
	CHANNELS 6 Xposition Yposition Zposition Zrotation Yrotation Xrotation 
	JOINT LHipJoint
	{
		OFFSET 0.000000 0.000000 0.000000
		CHANNELS 3 Zrotation Yrotation Xrotation
		JOINT LeftUpLeg
		{
			OFFSET 1.363060 -1.794630 0.839290
			CHANNELS 3 Zrotation Yrotation Xrotation
			JOINT LeftLeg
			{
				OFFSET 2.448110 -6.726130 0.000000
				CHANNELS 3 Zrotation Yrotation Xrotation
				JOINT LeftFoot
				{
					OFFSET 2.562200 -7.039590 0.000000
					CHANNELS 3 Zrotation Yrotation Xrotation
					JOINT LeftToeBase
					{
						OFFSET 0.157640 -0.433110 2.322550
						CHANNELS 3 Zrotation Yrotation Xrotation
						End Site
						{
							OFFSET 0.000000 0.000000 0.000000
						}
					}
				}
			}
		}
	}
	JOINT RHipJoint
	{
		OFFSET 0.000000 0.000000 0.000000
		CHANNELS 3 Zrotation Yrotation Xrotation
		JOINT RightUpLeg
		{
			OFFSET -1.305520 -1.794630 0.839290
			CHANNELS 3 Zrotation Yrotation Xrotation
			JOINT RightLeg
			{
				OFFSET -2.542530 -6.985550 0.000000
				CHANNELS 3 Zrotation Yrotation Xrotation
				JOINT RightFoot
				{
					OFFSET -2.568260 -7.056230 0.000000
					CHANNELS 3 Zrotation Yrotation Xrotation
					JOINT RightToeBase
					{
						OFFSET -0.164730 -0.452590 2.363150
						CHANNELS 3 Zrotation Yrotation Xrotation
						End Site
						{
							OFFSET 0.000000 0.000000 0.000000
						}
					}
				}
			}
		}
	}
	JOINT LowerBack
	{
		OFFSET 0.000000 0.000000 0.000000
		CHANNELS 3 Zrotation Yrotation Xrotation
		JOINT Spine
		{
			OFFSET 0.028270 2.035590 -0.193380
			CHANNELS 3 Zrotation Yrotation Xrotation
			JOINT Spine1
			{
				OFFSET 0.056720 2.048850 -0.042750
				CHANNELS 3 Zrotation Yrotation Xrotation
				JOINT Neck
				{
					OFFSET 0.000000 0.000000 0.000000
					CHANNELS 3 Zrotation Yrotation Xrotation
					JOINT Neck1
					{
						OFFSET -0.054170 1.746240 0.172020
						CHANNELS 3 Zrotation Yrotation Xrotation
						JOINT Head
						{
							OFFSET 0.104070 1.761360 -0.123970
							CHANNELS 3 Zrotation Yrotation Xrotation
							End Site
							{
								OFFSET 0.000000 0.000000 0.000000
							}
						}
					}
				}
				JOINT LeftShoulder
				{
					OFFSET 0.000000 0.000000 0.000000
					CHANNELS 3 Zrotation Yrotation Xrotation
					JOINT LeftArm
					{
						OFFSET 3.362410 1.200890 -0.311210
						CHANNELS 3 Zrotation Yrotation Xrotation
						JOINT LeftForeArm
						{
							OFFSET 4.983000 -0.000000 -0.000000
							CHANNELS 3 Zrotation Yrotation Xrotation
							JOINT LeftHand
							{
								OFFSET 3.483560 -0.000000 -0.000000
								CHANNELS 3 Zrotation Yrotation Xrotation
								JOINT LeftFingerBase
								{
									OFFSET 0.000000 0.000000 0.000000
									CHANNELS 3 Zrotation Yrotation Xrotation
									JOINT LeftHandIndex1
									{
										OFFSET 0.715260 -0.000000 -0.000000
										CHANNELS 3 Zrotation Yrotation Xrotation
										End Site
										{
											OFFSET 0.000000 0.000000 0.000000
										}
									}
								}
								JOINT LThumb
								{
									OFFSET 0.000000 0.000000 0.000000
									CHANNELS 3 Zrotation Yrotation Xrotation
									End Site
									{
										OFFSET 0.000000 0.000000 0.000000
									}
								}
							}
						}
					}
				}
				JOINT RightShoulder
				{
					OFFSET 0.000000 0.000000 0.000000
					CHANNELS 3 Zrotation Yrotation Xrotation
					JOINT RightArm
					{
						OFFSET -3.136600 1.374050 -0.404650
						CHANNELS 3 Zrotation Yrotation Xrotation
						JOINT RightForeArm
						{
							OFFSET -5.241900 -0.000000 -0.000000
							CHANNELS 3 Zrotation Yrotation Xrotation
							JOINT RightHand
							{
								OFFSET -3.444170 -0.000000 -0.000000
								CHANNELS 3 Zrotation Yrotation Xrotation
								JOINT RightFingerBase
								{
									OFFSET 0.000000 0.000000 0.000000
									CHANNELS 3 Zrotation Yrotation Xrotation
									JOINT RightHandIndex1
									{
										OFFSET -0.622530 -0.000000 -0.000000
										CHANNELS 3 Zrotation Yrotation Xrotation
										End Site
										{
											OFFSET 0.000000 0.000000 0.000000
										}
									}
								}
								JOINT RThumb
								{
									OFFSET 0.000000 0.000000 0.000000
									CHANNELS 3 Zrotation Yrotation Xrotation
									End Site
									{
										OFFSET 0.000000 0.000000 0.000000
									}
								}
							}
						}
					}
				}
			}
		}
	}
}
MOTION
Frames: 10
Frame Time: 0.008333
1.707761 17.997535 27.394686 -176.152695 -0.185460 -172.376493 -2.462454 2.239346 2.710959 -11.750744 -5.725756 -32.498893 8.270653 15.007845 52.079876 0.098060 1.622873 -9.070136 0.810500 -5.745100 -16.046500 -0.227746 -2.445256 1.910092 28.792654 12.779290 -8.257528 -4.095147 -8.651465 29.872350 -0.619348 -0.097040 -14.604194 -0.030200 1.122400 -3.085600 4.612419 0.873662 0.199307 4.566381 1.088739 7.238609 -4.962980 0.473962 -2.451002 -5.758690 -5.195925 -16.885794 2.195703 -6.439953 13.535255 0.486700 -3.255100 7.667300 -4.269262 -1.484027 -0.391129 -90.265433 6.549361 1.157514 12.719949 -12.430197 -1.111862 -0.690337 -0.588980 13.755601 18.830879 13.134339 4.815100 -7.125000 0.000000 0.000000 -7.457700 44.516200 0.089600 1.173086 1.338191 0.003928 85.713752 -4.204332 6.166044 -16.862822 23.662107 -3.153396 0.331935 -0.324092 6.296507 -25.821099 30.675504 -14.168200 7.125000 0.000000 0.000000 2.949500 3.668900 3.136300 
1.694888 18.008198 27.238676 -176.003333 0.385200 -172.197960 -2.535821 2.208883 2.672916 -11.447850 -6.107130 -32.924152 7.660575 14.536611 49.857686 0.101407 1.835034 -9.686635 0.706700 -5.372900 -14.975300 -0.229222 -2.418394 1.885029 28.914843 12.911664 -7.474849 -4.023093 -8.531721 29.444989 -0.660345 0.548667 -14.660087 -0.005300 -0.472100 1.297100 4.850802 1.153589 0.288530 4.241846 1.475862 7.161408 -5.167492 0.658929 -2.501141 -5.530291 -5.178351 -16.888642 2.245589 -6.460062 13.413611 0.467100 -3.244400 7.624700 -4.230726 -1.451569 -0.386723 -90.043821 7.005402 0.138587 12.637124 -12.358117 -1.093754 -0.648624 -0.511526 14.094970 18.702958 11.734885 4.274900 -7.125000 0.000000 0.000000 -7.295200 42.957500 0.369800 1.185488 1.314967 0.000171 85.796759 -4.011101 5.736099 -17.053337 23.954069 -3.234351 0.337466 -0.313981 6.024137 -26.038492 30.167997 -14.093100 7.125000 0.000000 0.000000 2.736200 3.183200 2.887200 
1.677692 18.028468 27.087468 -175.721877 1.160654 -171.996585 -2.596940 2.185022 2.648154 -11.000200 -6.430699 -33.351423 7.059314 14.047617 47.637332 0.174833 1.907258 -11.113433 0.308400 -3.570300 -9.870900 -0.218040 -2.399073 1.865690 29.015711 12.372242 -6.888679 -3.883554 -8.273040 28.563263 -0.638316 1.622717 -13.831165 -0.018200 -0.872000 2.396600 5.070871 1.199240 0.196075 4.255395 1.767025 7.277160 -5.311631 0.913478 -2.379240 -5.713849 -5.113282 -16.894554 2.411059 -6.321384 13.116148 0.552400 -3.170900 7.551300 -4.239221 -1.442903 -0.400485 -90.240334 7.256735 -1.237893 12.569551 -12.337178 -1.070291 -0.718626 -0.545791 14.470350 19.343466 12.970609 4.892500 -7.125000 0.000000 0.000000 -6.923800 44.376800 0.107000 1.169156 1.300500 -0.006896 85.513469 -3.576149 5.619350 -17.208943 24.182223 -3.294903 0.341525 -0.309930 5.785473 -26.295019 30.220688 -14.266400 7.125000 0.000000 0.000000 2.596600 3.296200 2.744400 
1.661553 18.046336 26.923772 -175.436589 1.477714 -172.185557 -2.636011 2.187317 2.647642 -10.514962 -6.929315 -33.274473 6.463530 13.513182 45.357533 0.036635 2.914005 -11.163708 0.720100 -5.422500 -15.117600 -0.170175 -2.367034 1.850412 29.185324 11.344570 -5.892243 -3.732237 -8.019118 27.664154 -0.645320 2.372120 -13.532801 -0.019000 -0.889200 2.444000 5.146634 1.022029 0.208309 4.668567 1.545899 7.709193 -5.292736 0.839511 -2.211490 -6.340884 -4.981369 -17.297514 2.596756 -5.961936 13.051053 0.717100 -3.011600 7.622200 -4.285144 -1.439020 -0.429995 -90.891951 7.344008 -3.349697 12.492615 -12.311941 -1.042850 -0.746441 -0.541666 15.079852 19.460812 13.043725 4.957600 -7.125000 0.000000 0.000000 -6.815100 44.477800 0.088300 1.120421 1.286784 -0.017125 84.787013 -2.933475 6.296658 -17.346926 24.375092 -3.346591 0.342358 -0.311945 5.520686 -26.119105 30.880218 -14.427500 7.125000 0.000000 0.000000 2.810700 3.943400 3.000900 
1.648777 18.062955 26.753352 -175.371515 1.655766 -172.217042 -2.709621 2.181313 2.642140 -10.189847 -7.458862 -33.272294 5.875170 12.925267 42.992108 -0.057009 3.339701 -10.732522 0.691400 -5.315500 -14.810700 -0.155475 -2.334545 1.828487 29.216620 10.828923 -4.753145 -3.558331 -7.724459 26.636421 -0.637469 2.536863 -13.359802 -0.023700 -0.994900 2.734600 5.176903 1.151766 0.206714 4.462635 1.721256 8.211826 -5.318950 0.943027 -1.993375 -6.023828 -5.171314 -18.587678 2.498197 -6.157182 13.438796 0.595600 -3.068600 7.941300 -4.267698 -1.448148 -0.431582 -90.752302 7.144728 -4.269808 12.386432 -12.182141 -1.015154 -0.629220 -0.461679 15.565413 18.049497 10.977907 3.853800 -7.125000 0.000000 0.000000 -7.744400 42.059600 0.565500 1.097923 1.298896 -0.028672 84.659075 -2.098184 5.980244 -17.480659 24.609984 -3.403578 0.339558 -0.321289 5.346601 -25.420922 31.806059 -14.367800 7.125000 0.000000 0.000000 3.368900 4.744200 3.642100 
1.635327 18.077173 26.592345 -175.134955 1.885982 -172.156853 -2.768881 2.169787 2.613908 -9.653683 -7.981248 -33.305837 5.273075 12.289657 40.507919 -0.179986 4.024567 -10.477792 0.563500 -4.807800 -13.361000 -0.133238 -2.305595 1.807874 29.444508 10.699363 -3.630457 -3.380692 -7.405373 25.557162 -0.587809 2.321215 -12.893193 -0.006100 -0.504000 1.384800 5.309834 1.267174 0.226146 4.473203 1.878537 8.392729 -5.378651 1.032674 -1.910312 -5.874490 -5.265009 -18.974231 2.309039 -6.263165 13.537635 0.496300 -3.119400 8.026800 -4.261429 -1.435071 -0.439197 -90.795538 7.394033 -4.808024 12.376165 -12.194785 -1.014863 -0.607113 -0.432288 15.591566 17.969438 10.300661 3.601500 -7.125000 0.000000 0.000000 -7.695900 41.312800 0.704600 1.074829 1.281819 -0.035730 84.431806 -1.533367 5.608964 -17.608136 24.816509 -3.454406 0.340060 -0.323614 4.994165 -25.183727 32.351001 -14.429800 7.125000 0.000000 0.000000 3.598400 5.252800 3.920200 
1.622070 18.084666 26.431723 -174.733702 1.957793 -172.172118 -2.823596 2.127021 2.524157 -8.919257 -8.605932 -33.082053 4.642533 11.579942 37.818248 -0.399536 5.287715 -10.157909 0.696500 -5.334900 -14.866300 -0.103676 -2.278464 1.748861 29.867363 10.438084 -2.473407 -3.226575 -7.141522 24.637539 -0.556323 2.132680 -12.610536 -0.000800 -0.176900 0.486000 5.678500 1.568563 0.288651 4.534055 2.266917 7.390783 -5.617134 1.187559 -2.274848 -5.866753 -5.130725 -15.524814 2.271279 -6.413410 12.410278 0.548100 -3.258300 7.133800 -4.204971 -1.343248 -0.447865 -90.684296 9.447788 -4.161751 12.426132 -12.266905 -1.036349 -0.739203 -0.479163 14.877359 20.092970 12.083783 4.756700 -7.125000 0.000000 0.000000 -6.031900 43.475700 0.227800 1.094611 1.161191 -0.041341 84.411659 -3.027332 5.202954 -18.012111 25.332504 -3.627209 0.343293 -0.309384 4.136543 -25.726079 31.729684 -14.522000 7.125000 0.000000 0.000000 3.185500 4.734600 3.442700 
1.605259 18.090334 26.266682 -174.469129 2.219466 -172.059592 -2.881871 2.136846 2.501176 -8.386427 -9.225912 -33.007939 4.044068 10.818640 35.087310 -0.696682 6.777024 -9.196471 1.001500 -6.368400 -17.857200 -0.073684 -2.256673 1.747252 30.006613 10.061568 -1.586117 -3.089003 -6.868537 23.733857 -0.517484 2.321140 -12.056243 -0.000600 -0.164500 0.452000 5.846744 1.562493 0.137593 4.664369 2.252475 7.809697 -5.673932 1.204383 -2.010371 -6.130546 -5.136766 -16.648599 2.539266 -6.260182 12.554096 0.648100 -3.151900 7.375300 -4.221836 -1.344869 -0.462849 -90.953893 9.333460 -4.825121 12.362207 -12.218988 -1.021929 -0.825977 -0.494695 14.727325 21.255060 12.923989 5.408200 -7.125000 0.000000 0.000000 -5.059700 44.538400 0.057800 1.059295 1.169623 -0.046194 83.932555 -2.237876 5.451019 -18.199295 25.614379 -3.711833 0.340478 -0.303872 3.289817 -24.516438 31.877290 -13.835400 7.125000 0.000000 0.000000 3.894300 4.597600 4.203300 
1.585950 18.087068 26.101257 -174.235709 2.562635 -172.014339 -2.941188 2.148127 2.486342 -8.006031 -9.593765 -32.900290 3.486769 10.032001 32.350868 -0.996234 8.115690 -7.552143 1.346700 -7.347000 -20.747700 -0.051191 -2.233017 1.735411 30.026263 9.371539 -0.726047 -2.950576 -6.578999 22.776805 -0.472476 2.875673 -11.247405 -0.000300 -0.113200 0.310900 6.007242 1.602706 0.018816 4.687588 2.302214 8.250076 -5.739266 1.250394 -1.742028 -6.443940 -5.178102 -17.941971 3.079681 -6.175905 13.089362 0.827100 -3.054600 7.770800 -4.221743 -1.337559 -0.472624 -91.105324 9.240102 -5.292722 12.335063 -12.190897 -1.010207 -0.784286 -0.494509 14.473764 20.520455 12.423607 5.009500 -7.125000 0.000000 0.000000 -5.670400 43.907300 0.153400 1.031478 1.189176 -0.046813 83.589331 -1.359175 5.236871 -18.272169 25.746263 -3.740542 0.338511 -0.308051 2.940608 -23.847459 32.525276 -13.662600 7.125000 0.000000 0.000000 4.380700 5.112500 4.767100 
1.566544 18.104360 25.933526 -174.081375 2.852903 -171.995319 -3.014733 2.144931 2.462861 -7.431537 -10.225745 -32.436775 2.958216 9.251836 29.743951 -1.090015 8.681081 -8.211516 1.408000 -7.505400 -21.221600 -0.015676 -2.201712 1.712683 29.942475 8.606035 0.190255 -2.805497 -6.277340 21.769621 -0.450734 3.441839 -10.725200 -0.000300 0.103900 -0.285400 6.094904 1.516629 0.119407 4.725163 2.202805 8.407013 -5.786017 1.207142 -1.731277 -6.747191 -5.127110 -18.865748 3.268764 -5.996926 13.949798 0.920600 -2.955500 8.188200 -4.226721 -1.304086 -0.479363 -91.408048 9.430290 -6.548418 12.367711 -12.306005 -1.010450 -0.759008 -0.520139 14.684825 19.830634 12.535435 4.872000 -7.125000 0.000000 0.000000 -6.352400 43.967000 0.162600 1.013334 1.186243 -0.038056 83.190577 -0.706557 5.171328 -18.305552 25.804159 -3.746073 0.350558 -0.299933 2.915950 -25.120560 32.396252 -14.402300 7.125000 0.000000 0.000000 3.640300 5.271500 3.967100 
